# xmcd
#
# Track frame offsets: 
#        150
#        10035
#        23882
#        36880
#        49997
#        58705
#        70090
#        84560
#        94652
#        106577
#        119427
#        130550
#        142610
#        158097
#        167632
#        177112
#        189772
#        200780
#        210200
#        221090
#        236275
#        251960
#        265700
#        277412
#
# Disc length: 3847 seconds
#
# Revision: 4
# Processed by: cddbd v1.5.2PL0 Copyright (c) Steve Scherf et al.
# Submitted via: ExactAudioCopy v1.3
#
DISCID=460f0518
DTITLE=Various Artist - Allons Cajun Louisiana Cajun Rock N Roll
DYEAR=1992
DGENRE=Cajun
TTITLE0=Aldus Roger - Lafayette Two Step (1964)
TTITLE1=Lawrence Walker - Allons Rock 'N Roll (1963)
TTITLE2=Nathan Abshire - Hip Et Taiau (1978)
TTITLE3=Blackie Forestier - Cush Cush (1973)
TTITLE4=Vin Bruce - La Fille De La Ville (1973)
TTITLE5=Aldus Roger - Lacassine Special (1964)
TTITLE6=Lawrence Walker - La Valse De Reno (1960)
TTITLE7=Rufus Thibodeaux - Lake Arthur Stomp (1972)
TTITLE8=Happy Fats - Les Veuves De La Coulee (1961)
TTITLE9=Louis Cormier - Married Life (1963)
TTITLE10=Aldus Roger - Mardi Gras Dance (1964)
TTITLE11=Aldus Roger - La Valse D'ennui (1966)
TTITLE12=Blackie Forestier - Just Because (1973)
TTITLE13=Doc Guidry - Boil Them Cabbages Down (1966)
TTITLE14=Vin Bruce - Le Sud De La Louisianne (1973)
TTITLE15=Aldus Roger - Diga Ding Ding Dong (1966)
TTITLE16=Lawrence Walker - Mamou Two Step (1960)
TTITLE17=Blackie Forestier - Hang Your Hat (1973)
TTITLE18=Jimmy 'C' Newman - Grand Mamou (1973)
TTITLE19=Jimmy Breaux - Creole Stomp (1991)
TTITLE20=Michael Doucet - La Valse De Klfy (1990)
TTITLE21=Jimmy Breaux - Bosco Stomp (1991)
TTITLE22=Cajun Born - Ma Belle Evangeline (1989)
TTITLE23=Cajun Born - La Maison A Deux Portes (1989)
EXTD=YEAR: 1992 ID3G:   2
EXTT0=
EXTT1=
EXTT2=
EXTT3=
EXTT4=
EXTT5=
EXTT6=
EXTT7=
EXTT8=
EXTT9=
EXTT10=
EXTT11=
EXTT12=
EXTT13=
EXTT14=
EXTT15=
EXTT16=
EXTT17=
EXTT18=
EXTT19=
EXTT20=
EXTT21=
EXTT22=
EXTT23=
PLAYORDER=
